STARTFONT 2.1
COMMENT This font was automaticaly reencoded from ISO8859-2 to ISO10646-1.
COMMENT by trbdf utility (ftp://lml.bas.bg/home/anton/linux/trscripts-1.5.tar.gz)
COMMENT The COMMENTs below (if any) are from the original font.
COMMENT ---------------------------------------------------------
COMMENT +
COMMENT  Copyright 1986, 1985 Bigelow & Holmes. 
COMMENT  Copyright 1996 BIZNET Poland, Inc.
COMMENT -
FONT -BIZNET-FotinosTypewriter-Bold-R-Normal-Sans-14-100-100-100-M-80-ISO10646-1
SIZE 10 100 100
FONTBOUNDINGBOX 9 13 0 -3
STARTPROPERTIES 21
FOUNDRY "BIZNET"
FAMILY_NAME "BIZNET FotinosTypewriter"
WEIGHT_NAME "Bold"
SLANT "R"
SETWIDTH_NAME "Normal"
ADD_STYLE_NAME "Sans"
PIXEL_SIZE 14
POINT_SIZE 100
RESOLUTION_X 100
RESOLUTION_Y 100
SPACING "M"
AVERAGE_WIDTH 80
CHARSET_REGISTRY "ISO10646"
CHARSET_ENCODING "1"
FONT_ASCENT 13
FONT_DESCENT 3
FACE_NAME "BIZNET Fotinos Sans Typewriter Bold"
CHARSET_COLLECTIONS "ASCII ISO8859-2"
COPYRIGHT "Copyright Bigelow & Holmes 1986, 1985. Copyright (c) 1996 BIZNET Poland, Inc. All Rights Reserved."
NOTICE "The name "BIZNET" is a registered trademark of BIZNET Poland, Inc."
DEFAULT_CHAR 32
ENDPROPERTIES
CHARS 213
STARTCHAR Lslash
ENCODING 321
SWIDTH 42 0
DWIDTH 8 0
BBX 9 10 0 0
BITMAP
3000
3000
3000
3400
3C00
F000
F000
3000
3000
3F80
ENDCHAR
STARTCHAR lslash
ENCODING 322
SWIDTH 42 0
DWIDTH 8 0
BBX 7 10 0 0
BITMAP
F8
18
18
1E
1E
78
58
18
18
18
ENDCHAR
STARTCHAR Nacute
ENCODING 323
SWIDTH 602 0
DWIDTH 8 0
BBX 7 13 1 0
BITMAP
0C
18
00
C2
E2
E2
B2
B2
9A
9E
8E
8E
86
ENDCHAR
STARTCHAR nacute
ENCODING 324
SWIDTH 602 0
DWIDTH 8 0
BBX 7 10 1 0
BITMAP
0C
18
00
DC
FE
E6
C6
C6
C6
C6
ENDCHAR
STARTCHAR n
ENCODING 110
SWIDTH 602 0
DWIDTH 8 0
BBX 7 7 1 0
BITMAP
DC
FE
E6
C6
C6
C6
C6
ENDCHAR
STARTCHAR o
ENCODING 111
SWIDTH 602 0
DWIDTH 8 0
BBX 8 7 0 0
BITMAP
3C
66
C3
C3
C3
66
3C
ENDCHAR
STARTCHAR p
ENCODING 112
SWIDTH 602 0
DWIDTH 8 0
BBX 7 10 1 -3
BITMAP
DC
FE
E6
C6
C6
CC
FC
C0
C0
C0
ENDCHAR
STARTCHAR Ncaron
ENCODING 327
SWIDTH 602 0
DWIDTH 8 0
BBX 7 13 1 0
BITMAP
3C
18
00
C2
E2
E2
B2
B2
9A
9E
8E
8E
86
ENDCHAR
STARTCHAR Racute
ENCODING 340
SWIDTH 602 0
DWIDTH 8 0
BBX 8 13 1 0
BITMAP
18
30
00
FC
C6
C6
CE
FC
D8
CC
CC
C6
C7
ENDCHAR
STARTCHAR q
ENCODING 113
SWIDTH 602 0
DWIDTH 8 0
BBX 7 10 1 -3
BITMAP
7E
66
C6
C6
CE
FE
76
06
06
06
ENDCHAR
STARTCHAR ncaron
ENCODING 328
SWIDTH 602 0
DWIDTH 8 0
BBX 7 10 1 0
BITMAP
3C
18
00
DC
FE
E6
C6
C6
C6
C6
ENDCHAR
STARTCHAR racute
ENCODING 341
SWIDTH 602 0
DWIDTH 8 0
BBX 6 10 2 0
BITMAP
18
30
00
DC
FC
E4
C0
C0
C0
C0
ENDCHAR
STARTCHAR r
ENCODING 114
SWIDTH 602 0
DWIDTH 8 0
BBX 6 7 2 0
BITMAP
DC
FC
E4
C0
C0
C0
C0
ENDCHAR
STARTCHAR s
ENCODING 115
SWIDTH 602 0
DWIDTH 8 0
BBX 6 7 1 0
BITMAP
7C
C0
E0
7C
1C
8C
F8
ENDCHAR
STARTCHAR t
ENCODING 116
SWIDTH 602 0
DWIDTH 8 0
BBX 7 9 1 0
BITMAP
30
30
FE
30
30
30
30
30
1E
ENDCHAR
STARTCHAR Rcaron
ENCODING 344
SWIDTH 602 0
DWIDTH 8 0
BBX 8 13 1 0
BITMAP
3C
18
00
FC
C6
C6
CE
FC
D8
CC
CC
C6
C7
ENDCHAR
STARTCHAR u
ENCODING 117
SWIDTH 602 0
DWIDTH 8 0
BBX 7 7 1 0
BITMAP
C6
C6
C6
C6
CE
FE
76
ENDCHAR
STARTCHAR rcaron
ENCODING 345
SWIDTH 602 0
DWIDTH 8 0
BBX 6 10 2 0
BITMAP
3C
18
00
DC
FC
E4
C0
C0
C0
C0
ENDCHAR
STARTCHAR v
ENCODING 118
SWIDTH 602 0
DWIDTH 8 0
BBX 8 7 0 0
BITMAP
C3
62
62
74
34
38
18
ENDCHAR
STARTCHAR Sacute
ENCODING 346
SWIDTH 602 0
DWIDTH 8 0
BBX 7 13 1 0
BITMAP
18
30
00
7C
C4
C0
E0
78
1C
0E
06
8E
F8
ENDCHAR
STARTCHAR w
ENCODING 119
SWIDTH 602 0
DWIDTH 8 0
BBX 8 7 0 0
BITMAP
C1
D9
DF
7E
7E
66
66
ENDCHAR
STARTCHAR sacute
ENCODING 347
SWIDTH 602 0
DWIDTH 8 0
BBX 6 10 1 0
BITMAP
18
30
00
7C
C0
E0
7C
1C
8C
F8
ENDCHAR
STARTCHAR Uring
ENCODING 366
SWIDTH 602 0
DWIDTH 8 0
BBX 7 13 1 0
BITMAP
18
18
00
C6
C6
C6
C6
C6
C6
C6
C6
C6
7C
ENDCHAR
STARTCHAR uring
ENCODING 367
SWIDTH 602 0
DWIDTH 8 0
BBX 7 11 1 0
BITMAP
18
18
00
00
C6
C6
C6
C6
CE
FE
76
ENDCHAR
STARTCHAR zdotaccent
ENCODING 380
SWIDTH 602 0
DWIDTH 8 0
BBX 7 9 1 0
BITMAP
18
00
FE
0E
1C
38
70
E0
FE
ENDCHAR
STARTCHAR Uhungarumlaut
ENCODING 368
SWIDTH 602 0
DWIDTH 8 0
BBX 7 13 1 0
BITMAP
16
2C
00
C6
C6
C6
C6
C6
C6
C6
C6
C6
7C
ENDCHAR
STARTCHAR Zcaron
ENCODING 381
SWIDTH 602 0
DWIDTH 8 0
BBX 7 13 1 0
BITMAP
3C
18
00
FE
0E
0C
1C
18
30
70
60
E0
FE
ENDCHAR
STARTCHAR uhungarumlaut
ENCODING 369
SWIDTH 602 0
DWIDTH 8 0
BBX 7 10 1 0
BITMAP
16
2C
00
C6
C6
C6
C6
CE
FE
76
ENDCHAR
STARTCHAR zcaron
ENCODING 382
SWIDTH 602 0
DWIDTH 8 0
BBX 7 10 1 0
BITMAP
3C
18
00
FE
0E
1C
38
70
E0
FE
ENDCHAR
STARTCHAR hyphen
ENCODING 173
SWIDTH 602 0
DWIDTH 8 0
BBX 6 1 1 4
BITMAP
FC
ENDCHAR
STARTCHAR uni000A
ENCODING 10
SWIDTH 602 0
DWIDTH 8 0
BBX 7 10 1 0
BITMAP
C6
CC
C8
D0
F0
F0
D8
DC
CC
CE
ENDCHAR
STARTCHAR uni000B
ENCODING 11
SWIDTH 602 0
DWIDTH 8 0
BBX 2 2 3 0
BITMAP
C0
C0
ENDCHAR
STARTCHAR degree
ENCODING 176
SWIDTH 602 0
DWIDTH 8 0
BBX 3 2 4 8
BITMAP
E0
60
ENDCHAR
STARTCHAR uni000C
ENCODING 12
SWIDTH 602 0
DWIDTH 8 0
BBX 2 2 3 0
BITMAP
C0
C0
ENDCHAR
STARTCHAR uni000D
ENCODING 13
SWIDTH 602 0
DWIDTH 8 0
BBX 2 2 3 0
BITMAP
C0
C0
ENDCHAR
STARTCHAR Oacute
ENCODING 211
SWIDTH 602 0
DWIDTH 8 0
BBX 8 13 0 0
BITMAP
18
30
00
3C
66
C3
C3
C3
C3
C3
C3
66
3C
ENDCHAR
STARTCHAR uni000E
ENCODING 14
SWIDTH 602 0
DWIDTH 8 0
BBX 2 4 3 6
BITMAP
C0
80
C0
C0
ENDCHAR
STARTCHAR Ocircumflex
ENCODING 212
SWIDTH 602 0
DWIDTH 8 0
BBX 8 13 0 0
BITMAP
18
3C
00
3C
66
C3
C3
C3
C3
C3
C3
66
3C
ENDCHAR
STARTCHAR uni000F
ENCODING 15
SWIDTH 602 0
DWIDTH 8 0
BBX 7 7 1 0
BITMAP
10
10
10
FE
10
10
10
ENDCHAR
STARTCHAR Aacute
ENCODING 193
SWIDTH 602 0
DWIDTH 8 0
BBX 8 13 0 0
BITMAP
0C
18
00
18
1C
1C
2C
2E
26
7E
46
47
83
ENDCHAR
STARTCHAR Odieresis
ENCODING 214
SWIDTH 602 0
DWIDTH 8 0
BBX 8 12 0 0
BITMAP
3C
00
3C
66
C3
C3
C3
C3
C3
C3
66
3C
ENDCHAR
STARTCHAR Acircumflex
ENCODING 194
SWIDTH 602 0
DWIDTH 8 0
BBX 8 13 0 0
BITMAP
18
3C
00
18
1C
1C
2C
2E
26
7E
46
47
83
ENDCHAR
STARTCHAR uni001E
ENCODING 30
SWIDTH 602 0
DWIDTH 8 0
BBX 7 10 1 0
BITMAP
C0
C0
C0
C0
C0
C0
C0
C0
C0
FE
ENDCHAR
STARTCHAR multiply
ENCODING 215
SWIDTH 602 0
DWIDTH 8 0
BBX 7 7 1 0
BITMAP
C2
44
28
10
28
C4
86
ENDCHAR
STARTCHAR uni0012
ENCODING 18
SWIDTH 602 0
DWIDTH 8 0
BBX 7 1 1 3
BITMAP
FE
ENDCHAR
STARTCHAR Adieresis
ENCODING 196
SWIDTH 602 0
DWIDTH 8 0
BBX 8 12 0 0
BITMAP
3C
00
18
1C
1C
2C
2E
26
7E
46
47
83
ENDCHAR
STARTCHAR space
ENCODING 32
SWIDTH 602 0
DWIDTH 8 0
BBX 1 1 0 0
BITMAP
00
ENDCHAR
STARTCHAR exclam
ENCODING 33
SWIDTH 602 0
DWIDTH 8 0
BBX 2 10 3 0
BITMAP
C0
C0
C0
C0
C0
80
80
00
00
C0
ENDCHAR
STARTCHAR ccedilla
ENCODING 231
SWIDTH 602 0
DWIDTH 8 0
BBX 7 10 1 -3
BITMAP
3E
60
C0
C0
C0
60
3E
10
18
38
ENDCHAR
STARTCHAR Uacute
ENCODING 218
SWIDTH 602 0
DWIDTH 8 0
BBX 7 13 1 0
BITMAP
18
30
00
C6
C6
C6
C6
C6
C6
C6
C6
C6
7C
ENDCHAR
STARTCHAR quotedbl
ENCODING 34
SWIDTH 602 0
DWIDTH 8 0
BBX 5 4 2 6
BITMAP
88
88
88
88
ENDCHAR
STARTCHAR Ccedilla
ENCODING 199
SWIDTH 602 0
DWIDTH 8 0
BBX 8 13 0 -3
BITMAP
1F
71
60
C0
C0
C0
C0
60
71
1F
08
0C
1C
ENDCHAR
STARTCHAR numbersign
ENCODING 35
SWIDTH 602 0
DWIDTH 8 0
BBX 7 10 1 0
BITMAP
14
14
24
7E
28
28
FC
58
50
50
ENDCHAR
STARTCHAR eacute
ENCODING 233
SWIDTH 602 0
DWIDTH 8 0
BBX 7 10 1 0
BITMAP
18
30
00
3C
66
C6
FE
C0
62
3E
ENDCHAR
STARTCHAR dollar
ENCODING 36
SWIDTH 602 0
DWIDTH 8 0
BBX 6 13 1 -2
BITMAP
10
3C
44
C0
E0
70
38
1C
0C
8C
F8
10
10
ENDCHAR
STARTCHAR two
ENCODING 50
SWIDTH 602 0
DWIDTH 8 0
BBX 6 10 1 0
BITMAP
F8
8C
0C
0C
08
10
20
60
C0
FC
ENDCHAR
STARTCHAR percent
ENCODING 37
SWIDTH 602 0
DWIDTH 8 0
BBX 9 10 0 0
BITMAP
6180
9300
9200
9400
6800
0B00
1480
2480
6480
C300
ENDCHAR
STARTCHAR edieresis
ENCODING 235
SWIDTH 602 0
DWIDTH 8 0
BBX 7 9 1 0
BITMAP
78
00
3C
66
C6
FE
C0
62
3E
ENDCHAR
STARTCHAR three
ENCODING 51
SWIDTH 602 0
DWIDTH 8 0
BBX 6 10 1 0
BITMAP
F8
0C
0C
1C
70
18
0C
0C
1C
F8
ENDCHAR
STARTCHAR ampersand
ENCODING 38
SWIDTH 602 0
DWIDTH 8 0
BBX 8 10 0 0
BITMAP
38
6C
6C
7C
33
FB
DB
DE
CE
7F
ENDCHAR
STARTCHAR four
ENCODING 52
SWIDTH 602 0
DWIDTH 8 0
BBX 7 10 1 0
BITMAP
0C
1C
3C
2C
4C
FE
FE
0C
0C
0C
ENDCHAR
STARTCHAR quotesingle
ENCODING 39
SWIDTH 602 0
DWIDTH 8 0
BBX 2 4 3 6
BITMAP
C0
C0
40
C0
ENDCHAR
STARTCHAR uacute
ENCODING 250
SWIDTH 602 0
DWIDTH 8 0
BBX 7 10 1 0
BITMAP
18
30
00
C6
C6
C6
C6
CE
FE
76
ENDCHAR
STARTCHAR iacute
ENCODING 237
SWIDTH 602 0
DWIDTH 8 0
BBX 5 10 1 0
BITMAP
18
30
00
F8
18
18
18
18
18
18
ENDCHAR
STARTCHAR caron
ENCODING 711
SWIDTH 602 0
DWIDTH 8 0
BBX 4 2 2 8
BITMAP
F0
60
ENDCHAR
STARTCHAR five
ENCODING 53
SWIDTH 602 0
DWIDTH 8 0
BBX 5 10 2 0
BITMAP
F8
80
80
E0
30
18
18
18
B8
F0
ENDCHAR
STARTCHAR icircumflex
ENCODING 238
SWIDTH 602 0
DWIDTH 8 0
BBX 5 10 1 0
BITMAP
30
78
00
F8
18
18
18
18
18
18
ENDCHAR
STARTCHAR six
ENCODING 54
SWIDTH 602 0
DWIDTH 8 0
BBX 7 10 1 0
BITMAP
1E
60
40
DC
EE
C6
C6
C6
6C
38
ENDCHAR
STARTCHAR udieresis
ENCODING 252
SWIDTH 602 0
DWIDTH 8 0
BBX 7 9 1 0
BITMAP
3C
00
C6
C6
C6
C6
CE
FE
76
ENDCHAR
STARTCHAR seven
ENCODING 55
SWIDTH 602 0
DWIDTH 8 0
BBX 6 10 2 0
BITMAP
FC
0C
08
10
30
20
60
60
C0
C0
ENDCHAR
STARTCHAR yacute
ENCODING 253
SWIDTH 602 0
DWIDTH 8 0
BBX 8 13 0 -3
BITMAP
18
30
00
C3
62
62
34
34
18
18
10
10
E0
ENDCHAR
STARTCHAR eight
ENCODING 56
SWIDTH 602 0
DWIDTH 8 0
BBX 7 10 1 0
BITMAP
38
6C
6C
7C
38
7C
CE
C6
C6
7C
ENDCHAR
STARTCHAR F
ENCODING 70
SWIDTH 602 0
DWIDTH 8 0
BBX 7 10 1 0
BITMAP
FE
C0
C0
C0
FC
C0
C0
C0
C0
C0
ENDCHAR
STARTCHAR uni0002
ENCODING 2
SWIDTH 602 0
DWIDTH 8 0
BBX 7 10 1 0
BITMAP
14
14
24
7E
28
28
FC
58
50
50
ENDCHAR
STARTCHAR nine
ENCODING 57
SWIDTH 602 0
DWIDTH 8 0
BBX 7 10 1 0
BITMAP
38
6C
C6
C6
C6
EE
76
04
0C
F0
ENDCHAR
STARTCHAR uni0003
ENCODING 3
SWIDTH 602 0
DWIDTH 8 0
BBX 6 10 1 0
BITMAP
FC
30
30
30
30
30
30
30
30
FC
ENDCHAR
STARTCHAR G
ENCODING 71
SWIDTH 602 0
DWIDTH 8 0
BBX 8 10 0 0
BITMAP
1F
71
60
C0
C0
C3
C3
63
73
1F
ENDCHAR
STARTCHAR colon
ENCODING 58
SWIDTH 602 0
DWIDTH 8 0
BBX 2 7 3 0
BITMAP
C0
C0
00
00
00
C0
C0
ENDCHAR
STARTCHAR uni0004
ENCODING 4
SWIDTH 602 0
DWIDTH 8 0
BBX 7 10 1 0
BITMAP
C0
C0
C0
C0
C0
C0
C0
C0
C0
FE
ENDCHAR
STARTCHAR H
ENCODING 72
SWIDTH 602 0
DWIDTH 8 0
BBX 7 10 1 0
BITMAP
C6
C6
C6
C6
FE
C6
C6
C6
C6
C6
ENDCHAR
STARTCHAR semicolon
ENCODING 59
SWIDTH 602 0
DWIDTH 8 0
BBX 2 10 3 -3
BITMAP
C0
C0
00
00
00
C0
C0
40
40
C0
ENDCHAR
STARTCHAR Dcaron
ENCODING 270
SWIDTH 602 0
DWIDTH 8 0
BBX 8 13 0 0
BITMAP
3C
18
00
FC
C6
C3
C3
C3
C3
C3
C2
C6
FC
ENDCHAR
STARTCHAR ogonek
ENCODING 731
SWIDTH 602 0
DWIDTH 8 0
BBX 2 2 3 -3
BITMAP
C0
C0
ENDCHAR
STARTCHAR uni0005
ENCODING 5
SWIDTH 602 0
DWIDTH 8 0
BBX 8 10 0 0
BITMAP
C7
C7
E7
A7
A7
AB
AB
9B
9B
83
ENDCHAR
STARTCHAR I
ENCODING 73
SWIDTH 602 0
DWIDTH 8 0
BBX 6 10 1 0
BITMAP
FC
30
30
30
30
30
30
30
30
FC
ENDCHAR
STARTCHAR dcaron
ENCODING 271
SWIDTH 602 0
DWIDTH 8 0
BBX 9 10 1 0
BITMAP
0680
0680
0680
7E80
6600
C600
C600
CE00
FE00
7600
ENDCHAR
STARTCHAR Abreve
ENCODING 258
SWIDTH 602 0
DWIDTH 8 0
BBX 8 13 0 0
BITMAP
24
18
00
18
1C
1C
2C
2E
26
7E
46
47
83
ENDCHAR
STARTCHAR uni0006
ENCODING 6
SWIDTH 602 0
DWIDTH 8 0
BBX 6 10 1 0
BITMAP
7C
0C
0C
0C
0C
0C
0C
0C
0C
F8
ENDCHAR
STARTCHAR J
ENCODING 74
SWIDTH 602 0
DWIDTH 8 0
BBX 6 10 1 0
BITMAP
7C
0C
0C
0C
0C
0C
0C
0C
0C
F8
ENDCHAR
STARTCHAR abreve
ENCODING 259
SWIDTH 602 0
DWIDTH 8 0
BBX 7 10 1 0
BITMAP
48
30
00
78
4C
0C
7C
CC
CC
76
ENDCHAR
STARTCHAR Dcroat
ENCODING 272
SWIDTH 602 0
DWIDTH 8 0
BBX 9 10 0 0
BITMAP
7E00
6300
6180
6180
F980
6180
6180
6100
6300
7E00
ENDCHAR
STARTCHAR hungarumlaut
ENCODING 733
SWIDTH 602 0
DWIDTH 8 0
BBX 5 2 1 8
BITMAP
78
B0
ENDCHAR
STARTCHAR uni0007
ENCODING 7
SWIDTH 602 0
DWIDTH 8 0
BBX 3 2 4 8
BITMAP
E0
60
ENDCHAR
STARTCHAR K
ENCODING 75
SWIDTH 602 0
DWIDTH 8 0
BBX 7 10 1 0
BITMAP
C6
CC
C8
D0
F0
F0
D8
DC
CC
CE
ENDCHAR
STARTCHAR dcroat
ENCODING 273
SWIDTH 602 0
DWIDTH 8 0
BBX 8 10 1 0
BITMAP
06
3F
06
7E
66
C6
C6
CE
FE
76
ENDCHAR
STARTCHAR L
ENCODING 76
SWIDTH 602 0
DWIDTH 8 0
BBX 7 10 1 0
BITMAP
C0
C0
C0
C0
C0
C0
C0
C0
C0
FE
ENDCHAR
STARTCHAR Z
ENCODING 90
SWIDTH 602 0
DWIDTH 8 0
BBX 7 10 1 0
BITMAP
FE
0E
0C
1C
18
30
70
60
E0
FE
ENDCHAR
STARTCHAR M
ENCODING 77
SWIDTH 602 0
DWIDTH 8 0
BBX 8 10 0 0
BITMAP
C7
C7
E7
A7
A7
AB
AB
9B
9B
83
ENDCHAR
STARTCHAR bracketleft
ENCODING 91
SWIDTH 602 0
DWIDTH 8 0
BBX 5 13 3 -3
BITMAP
F8
C0
C0
C0
C0
C0
C0
C0
C0
C0
C0
C0
F8
ENDCHAR
STARTCHAR N
ENCODING 78
SWIDTH 602 0
DWIDTH 8 0
BBX 7 10 1 0
BITMAP
C2
E2
E2
B2
B2
9A
9E
8E
8E
86
ENDCHAR
STARTCHAR backslash
ENCODING 92
SWIDTH 602 0
DWIDTH 8 0
BBX 8 13 0 -3
BITMAP
C0
40
20
20
30
10
18
08
0C
04
04
02
03
ENDCHAR
STARTCHAR O
ENCODING 79
SWIDTH 602 0
DWIDTH 8 0
BBX 8 10 0 0
BITMAP
3C
66
C3
C3
C3
C3
C3
C3
66
3C
ENDCHAR
STARTCHAR bracketright
ENCODING 93
SWIDTH 602 0
DWIDTH 8 0
BBX 5 13 1 -3
BITMAP
F8
18
18
18
18
18
18
18
18
18
18
18
F8
ENDCHAR
STARTCHAR asciicircum
ENCODING 94
SWIDTH 602 0
DWIDTH 8 0
BBX 7 7 1 2
BITMAP
10
10
28
28
44
44
C6
ENDCHAR
STARTCHAR underscore
ENCODING 95
SWIDTH 602 0
DWIDTH 8 0
BBX 8 1 0 -2
BITMAP
FF
ENDCHAR
STARTCHAR Lacute
ENCODING 313
SWIDTH 602 0
DWIDTH 8 0
BBX 7 13 1 0
BITMAP
30
60
00
C0
C0
C0
C0
C0
C0
C0
C0
C0
FE
ENDCHAR
STARTCHAR grave
ENCODING 96
SWIDTH 602 0
DWIDTH 8 0
BBX 2 4 3 6
BITMAP
C0
80
C0
C0
ENDCHAR
STARTCHAR lacute
ENCODING 314
SWIDTH 602 0
DWIDTH 8 0
BBX 5 13 1 0
BITMAP
18
30
00
F8
18
18
18
18
18
18
18
18
18
ENDCHAR
STARTCHAR d
ENCODING 100
SWIDTH 602 0
DWIDTH 8 0
BBX 7 10 1 0
BITMAP
06
06
06
7E
66
C6
C6
CE
FE
76
ENDCHAR
STARTCHAR a
ENCODING 97
SWIDTH 602 0
DWIDTH 8 0
BBX 7 7 1 0
BITMAP
78
4C
0C
7C
CC
CC
76
ENDCHAR
STARTCHAR e
ENCODING 101
SWIDTH 602 0
DWIDTH 8 0
BBX 7 7 1 0
BITMAP
3C
66
C6
FE
C0
62
3E
ENDCHAR
STARTCHAR b
ENCODING 98
SWIDTH 602 0
DWIDTH 8 0
BBX 7 10 1 0
BITMAP
C0
C0
C0
DC
FE
E6
C6
C6
CC
FC
ENDCHAR
STARTCHAR f
ENCODING 102
SWIDTH 602 0
DWIDTH 8 0
BBX 7 10 1 0
BITMAP
3E
60
60
FC
60
60
60
60
60
60
ENDCHAR
STARTCHAR c
ENCODING 99
SWIDTH 602 0
DWIDTH 8 0
BBX 7 7 1 0
BITMAP
3E
60
C0
C0
C0
60
3E
ENDCHAR
STARTCHAR Lcaron
ENCODING 317
SWIDTH 602 0
DWIDTH 8 0
BBX 7 10 1 0
BITMAP
D0
D0
D0
D0
C0
C0
C0
C0
C0
FE
ENDCHAR
STARTCHAR g
ENCODING 103
SWIDTH 602 0
DWIDTH 8 0
BBX 7 10 1 -3
BITMAP
7E
E6
C6
C6
CE
FE
76
06
4C
78
ENDCHAR
STARTCHAR lcaron
ENCODING 318
SWIDTH 602 0
DWIDTH 8 0
BBX 7 10 1 0
BITMAP
FA
1A
1A
1A
18
18
18
18
18
18
ENDCHAR
STARTCHAR h
ENCODING 104
SWIDTH 602 0
DWIDTH 8 0
BBX 7 10 1 0
BITMAP
C0
C0
C0
DC
FE
E6
C6
C6
C6
C6
ENDCHAR
STARTCHAR i
ENCODING 105
SWIDTH 602 0
DWIDTH 8 0
BBX 5 10 1 0
BITMAP
18
18
00
F8
18
18
18
18
18
18
ENDCHAR
STARTCHAR j
ENCODING 106
SWIDTH 602 0
DWIDTH 8 0
BBX 5 13 1 -3
BITMAP
18
18
00
78
18
18
18
18
18
18
18
98
F0
ENDCHAR
STARTCHAR x
ENCODING 120
SWIDTH 602 0
DWIDTH 8 0
BBX 8 7 0 0
BITMAP
E2
74
38
18
2C
6E
C7
ENDCHAR
STARTCHAR k
ENCODING 107
SWIDTH 602 0
DWIDTH 8 0
BBX 7 10 1 0
BITMAP
C0
C0
C0
CC
C8
D0
F8
D8
DC
CE
ENDCHAR
STARTCHAR y
ENCODING 121
SWIDTH 602 0
DWIDTH 8 0
BBX 8 10 0 -3
BITMAP
C3
62
62
34
34
18
18
10
10
E0
ENDCHAR
STARTCHAR l
ENCODING 108
SWIDTH 602 0
DWIDTH 8 0
BBX 5 10 1 0
BITMAP
F8
18
18
18
18
18
18
18
18
18
ENDCHAR
STARTCHAR Ohungarumlaut
ENCODING 336
SWIDTH 602 0
DWIDTH 8 0
BBX 8 13 0 0
BITMAP
16
2C
00
3C
66
C3
C3
C3
C3
C3
C3
66
3C
ENDCHAR
STARTCHAR z
ENCODING 122
SWIDTH 602 0
DWIDTH 8 0
BBX 7 7 1 0
BITMAP
FE
0E
1C
38
70
E0
FE
ENDCHAR
STARTCHAR m
ENCODING 109
SWIDTH 602 0
DWIDTH 8 0
BBX 8 7 0 0
BITMAP
DF
FF
DB
DB
DB
DB
DB
ENDCHAR
STARTCHAR ohungarumlaut
ENCODING 337
SWIDTH 602 0
DWIDTH 8 0
BBX 8 10 0 0
BITMAP
16
2C
00
3C
66
C3
C3
C3
66
3C
ENDCHAR
STARTCHAR Scommaaccent
ENCODING 350
SWIDTH 602 0
DWIDTH 8 0
BBX 7 13 1 -3
BITMAP
7C
C4
C0
E0
78
1C
0E
06
8E
F8
20
30
70
ENDCHAR
STARTCHAR braceleft
ENCODING 123
SWIDTH 602 0
DWIDTH 8 0
BBX 7 13 1 -3
BITMAP
1E
18
18
18
18
18
E0
18
18
18
18
18
1E
ENDCHAR
STARTCHAR scommaaccent
ENCODING 351
SWIDTH 602 0
DWIDTH 8 0
BBX 6 10 1 -3
BITMAP
7C
C0
E0
7C
1C
8C
F8
20
30
70
ENDCHAR
STARTCHAR bar
ENCODING 124
SWIDTH 602 0
DWIDTH 8 0
BBX 1 13 4 -3
BITMAP
80
80
80
80
80
80
80
80
80
80
80
80
80
ENDCHAR
STARTCHAR Scaron
ENCODING 352
SWIDTH 602 0
DWIDTH 8 0
BBX 7 13 1 0
BITMAP
78
30
00
7C
C4
C0
E0
78
1C
0E
06
8E
F8
ENDCHAR
STARTCHAR braceright
ENCODING 125
SWIDTH 602 0
DWIDTH 8 0
BBX 7 13 0 -3
BITMAP
F0
30
30
30
30
30
0E
30
30
30
30
30
F0
ENDCHAR
STARTCHAR scaron
ENCODING 353
SWIDTH 602 0
DWIDTH 8 0
BBX 6 10 1 0
BITMAP
78
30
00
7C
C0
E0
7C
1C
8C
F8
ENDCHAR
STARTCHAR asciitilde
ENCODING 126
SWIDTH 602 0
DWIDTH 8 0
BBX 7 3 1 2
BITMAP
62
92
8C
ENDCHAR
STARTCHAR Tcommaaccent
ENCODING 354
SWIDTH 602 0
DWIDTH 8 0
BBX 8 13 0 -3
BITMAP
FF
18
18
18
18
18
18
18
18
18
08
0C
1C
ENDCHAR
STARTCHAR tcommaaccent
ENCODING 355
SWIDTH 602 0
DWIDTH 8 0
BBX 7 12 1 -3
BITMAP
30
30
FE
30
30
30
30
30
1E
04
06
0E
ENDCHAR
STARTCHAR Tcaron
ENCODING 356
SWIDTH 602 0
DWIDTH 8 0
BBX 8 13 0 0
BITMAP
3C
18
00
FF
18
18
18
18
18
18
18
18
18
ENDCHAR
STARTCHAR tcaron
ENCODING 357
SWIDTH 602 0
DWIDTH 8 0
BBX 7 12 1 0
BITMAP
02
02
02
32
30
FE
30
30
30
30
30
1E
ENDCHAR
STARTCHAR Zacute
ENCODING 377
SWIDTH 602 0
DWIDTH 8 0
BBX 7 13 1 0
BITMAP
0C
18
00
FE
0E
0C
1C
18
30
70
60
E0
FE
ENDCHAR
STARTCHAR zacute
ENCODING 378
SWIDTH 602 0
DWIDTH 8 0
BBX 7 10 1 0
BITMAP
0C
18
00
FE
0E
1C
38
70
E0
FE
ENDCHAR
STARTCHAR currency
ENCODING 164
SWIDTH 602 0
DWIDTH 8 0
BBX 8 8 0 1
BITMAP
42
FF
66
42
42
66
FF
42
ENDCHAR
STARTCHAR Zdotaccent
ENCODING 379
SWIDTH 602 0
DWIDTH 8 0
BBX 7 12 1 0
BITMAP
18
00
FE
0E
0C
1C
18
30
70
60
E0
FE
ENDCHAR
STARTCHAR acute
ENCODING 180
SWIDTH 602 0
DWIDTH 8 0
BBX 3 2 3 8
BITMAP
60
C0
ENDCHAR
STARTCHAR section
ENCODING 167
SWIDTH 602 0
DWIDTH 8 0
BBX 6 13 1 -3
BITMAP
78
C0
C0
E0
78
8C
84
E4
78
3C
0C
0C
F8
ENDCHAR
STARTCHAR Eacute
ENCODING 201
SWIDTH 602 0
DWIDTH 8 0
BBX 7 13 1 0
BITMAP
18
30
00
FE
C0
C0
C0
FC
C0
C0
C0
C0
FE
ENDCHAR
STARTCHAR dieresis
ENCODING 168
SWIDTH 602 0
DWIDTH 8 0
BBX 4 1 2 9
BITMAP
F0
ENDCHAR
STARTCHAR Edieresis
ENCODING 203
SWIDTH 602 0
DWIDTH 8 0
BBX 7 12 1 0
BITMAP
78
00
FE
C0
C0
C0
FC
C0
C0
C0
C0
FE
ENDCHAR
STARTCHAR cedilla
ENCODING 184
SWIDTH 602 0
DWIDTH 8 0
BBX 3 3 2 -3
BITMAP
C0
60
E0
ENDCHAR
STARTCHAR Iacute
ENCODING 205
SWIDTH 602 0
DWIDTH 8 0
BBX 6 13 1 0
BITMAP
18
30
00
FC
30
30
30
30
30
30
30
30
FC
ENDCHAR
STARTCHAR uni0015
ENCODING 21
SWIDTH 602 0
DWIDTH 8 0
BBX 7 7 1 0
BITMAP
10
10
10
FE
10
10
10
ENDCHAR
STARTCHAR Icircumflex
ENCODING 206
SWIDTH 602 0
DWIDTH 8 0
BBX 6 13 1 0
BITMAP
30
78
00
FC
30
30
30
30
30
30
30
30
FC
ENDCHAR
STARTCHAR uni0016
ENCODING 22
SWIDTH 602 0
DWIDTH 8 0
BBX 7 7 1 0
BITMAP
10
10
10
FE
10
10
10
ENDCHAR
STARTCHAR Udieresis
ENCODING 220
SWIDTH 602 0
DWIDTH 8 0
BBX 7 12 1 0
BITMAP
78
00
C6
C6
C6
C6
C6
C6
C6
C6
C6
7C
ENDCHAR
STARTCHAR uni0017
ENCODING 23
SWIDTH 602 0
DWIDTH 8 0
BBX 7 7 1 0
BITMAP
10
10
10
FE
10
10
10
ENDCHAR
STARTCHAR Yacute
ENCODING 221
SWIDTH 602 0
DWIDTH 8 0
BBX 8 13 0 0
BITMAP
18
30
00
C3
62
76
34
38
18
18
18
18
18
ENDCHAR
STARTCHAR uni0018
ENCODING 24
SWIDTH 602 0
DWIDTH 8 0
BBX 7 7 1 0
BITMAP
10
10
10
FE
10
10
10
ENDCHAR
STARTCHAR uni0019
ENCODING 25
SWIDTH 602 0
DWIDTH 8 0
BBX 1 13 4 -3
BITMAP
80
80
80
80
80
80
80
80
80
80
80
80
80
ENDCHAR
STARTCHAR uni2010
ENCODING 8208
SWIDTH 602 0
DWIDTH 8 0
BBX 7 1 1 3
BITMAP
FE
ENDCHAR
STARTCHAR germandbls
ENCODING 223
SWIDTH 602 0
DWIDTH 8 0
BBX 7 10 1 0
BITMAP
78
CC
CC
D8
D8
DC
CE
C6
D6
DC
ENDCHAR
STARTCHAR uni001A
ENCODING 26
SWIDTH 602 0
DWIDTH 8 0
BBX 6 7 0 0
BITMAP
04
1C
70
C0
70
1C
04
ENDCHAR
STARTCHAR uni001B
ENCODING 27
SWIDTH 602 0
DWIDTH 8 0
BBX 6 7 1 0
BITMAP
80
E0
38
0C
38
E0
80
ENDCHAR
STARTCHAR parenleft
ENCODING 40
SWIDTH 602 0
DWIDTH 8 0
BBX 6 13 2 -3
BITMAP
1C
38
60
E0
C0
C0
C0
C0
C0
60
70
3C
0C
ENDCHAR
STARTCHAR aacute
ENCODING 225
SWIDTH 602 0
DWIDTH 8 0
BBX 7 10 1 0
BITMAP
18
30
00
78
4C
0C
7C
CC
CC
76
ENDCHAR
STARTCHAR uni001C
ENCODING 28
SWIDTH 602 0
DWIDTH 8 0
BBX 7 10 1 -3
BITMAP
DC
FE
E6
C6
C6
CC
FC
C0
C0
C0
ENDCHAR
STARTCHAR parenright
ENCODING 41
SWIDTH 602 0
DWIDTH 8 0
BBX 6 13 1 -3
BITMAP
C0
F0
38
18
0C
0C
0C
0C
0C
18
18
70
C0
ENDCHAR
STARTCHAR acircumflex
ENCODING 226
SWIDTH 602 0
DWIDTH 8 0
BBX 7 10 1 0
BITMAP
30
78
00
78
4C
0C
7C
CC
CC
76
ENDCHAR
STARTCHAR asterisk
ENCODING 42
SWIDTH 602 0
DWIDTH 8 0
BBX 6 6 1 4
BITMAP
30
94
CC
28
78
48
ENDCHAR
STARTCHAR plus
ENCODING 43
SWIDTH 602 0
DWIDTH 8 0
BBX 7 7 1 0
BITMAP
10
10
10
FE
10
10
10
ENDCHAR
STARTCHAR adieresis
ENCODING 228
SWIDTH 602 0
DWIDTH 8 0
BBX 7 9 1 0
BITMAP
78
00
78
4C
0C
7C
CC
CC
76
ENDCHAR
STARTCHAR comma
ENCODING 44
SWIDTH 602 0
DWIDTH 8 0
BBX 2 5 3 -3
BITMAP
C0
C0
40
40
C0
ENDCHAR
STARTCHAR hyphen
ENCODING 45
SWIDTH 602 0
DWIDTH 8 0
BBX 7 1 1 3
BITMAP
FE
ENDCHAR
STARTCHAR oacute
ENCODING 243
SWIDTH 602 0
DWIDTH 8 0
BBX 8 10 0 0
BITMAP
0C
18
00
3C
66
C3
C3
C3
66
3C
ENDCHAR
STARTCHAR period
ENCODING 46
SWIDTH 602 0
DWIDTH 8 0
BBX 2 2 3 0
BITMAP
C0
C0
ENDCHAR
STARTCHAR ocircumflex
ENCODING 244
SWIDTH 602 0
DWIDTH 8 0
BBX 8 10 0 0
BITMAP
18
3C
00
3C
66
C3
C3
C3
66
3C
ENDCHAR
STARTCHAR less
ENCODING 60
SWIDTH 602 0
DWIDTH 8 0
BBX 6 7 0 0
BITMAP
04
1C
70
C0
70
1C
04
ENDCHAR
STARTCHAR slash
ENCODING 47
SWIDTH 602 0
DWIDTH 8 0
BBX 8 13 0 -3
BITMAP
03
02
06
04
0C
08
18
10
30
20
60
40
C0
ENDCHAR
STARTCHAR equal
ENCODING 61
SWIDTH 602 0
DWIDTH 8 0
BBX 7 5 1 1
BITMAP
FE
00
00
00
FE
ENDCHAR
STARTCHAR zero
ENCODING 48
SWIDTH 602 0
DWIDTH 8 0
BBX 7 10 1 0
BITMAP
38
44
C6
C6
C6
C6
C6
C6
44
38
ENDCHAR
STARTCHAR odieresis
ENCODING 246
SWIDTH 602 0
DWIDTH 8 0
BBX 8 9 0 0
BITMAP
3C
00
3C
66
C3
C3
C3
66
3C
ENDCHAR
STARTCHAR greater
ENCODING 62
SWIDTH 602 0
DWIDTH 8 0
BBX 6 7 1 0
BITMAP
80
E0
38
0C
38
E0
80
ENDCHAR
STARTCHAR one
ENCODING 49
SWIDTH 602 0
DWIDTH 8 0
BBX 6 10 2 0
BITMAP
F0
30
30
30
30
30
30
30
30
FC
ENDCHAR
STARTCHAR divide
ENCODING 247
SWIDTH 602 0
DWIDTH 8 0
BBX 8 7 0 0
BITMAP
18
18
00
FF
00
18
18
ENDCHAR
STARTCHAR Aogonek
ENCODING 260
SWIDTH 602 0
DWIDTH 8 0
BBX 8 12 0 -2
BITMAP
18
1C
1C
2C
2E
26
7E
46
47
83
02
03
ENDCHAR
STARTCHAR question
ENCODING 63
SWIDTH 602 0
DWIDTH 8 0
BBX 7 10 1 0
BITMAP
FC
86
86
0C
18
20
60
00
00
60
ENDCHAR
STARTCHAR aogonek
ENCODING 261
SWIDTH 602 0
DWIDTH 8 0
BBX 7 9 1 -2
BITMAP
78
4C
0C
7C
CC
CC
76
04
06
ENDCHAR
STARTCHAR at
ENCODING 64
SWIDTH 602 0
DWIDTH 8 0
BBX 8 10 0 0
BITMAP
3C
62
5E
B2
A2
A6
A6
9B
44
3C
ENDCHAR
STARTCHAR Cacute
ENCODING 262
SWIDTH 602 0
DWIDTH 8 0
BBX 8 13 0 0
BITMAP
06
0C
00
1F
71
60
C0
C0
C0
C0
60
71
1F
ENDCHAR
STARTCHAR A
ENCODING 65
SWIDTH 602 0
DWIDTH 8 0
BBX 8 10 0 0
BITMAP
18
1C
1C
2C
2E
26
7E
46
47
83
ENDCHAR
STARTCHAR cacute
ENCODING 263
SWIDTH 602 0
DWIDTH 8 0
BBX 7 10 1 0
BITMAP
0C
18
00
3E
60
C0
C0
C0
60
3E
ENDCHAR
STARTCHAR B
ENCODING 66
SWIDTH 602 0
DWIDTH 8 0
BBX 7 10 1 0
BITMAP
FC
C6
C6
CE
F8
CC
C6
C6
CE
FC
ENDCHAR
STARTCHAR P
ENCODING 80
SWIDTH 602 0
DWIDTH 8 0
BBX 7 10 1 0
BITMAP
FC
C6
C6
C6
CE
FC
C0
C0
C0
C0
ENDCHAR
STARTCHAR C
ENCODING 67
SWIDTH 602 0
DWIDTH 8 0
BBX 8 10 0 0
BITMAP
1F
71
60
C0
C0
C0
C0
60
71
1F
ENDCHAR
STARTCHAR Q
ENCODING 81
SWIDTH 602 0
DWIDTH 8 0
BBX 9 13 0 -3
BITMAP
3C00
6600
C300
C300
C300
C300
C300
C300
6600
3C00
0780
0300
0100
ENDCHAR
STARTCHAR D
ENCODING 68
SWIDTH 602 0
DWIDTH 8 0
BBX 8 10 0 0
BITMAP
FC
C6
C3
C3
C3
C3
C3
C2
C6
FC
ENDCHAR
STARTCHAR R
ENCODING 82
SWIDTH 602 0
DWIDTH 8 0
BBX 8 10 1 0
BITMAP
FC
C6
C6
CE
FC
D8
CC
CC
C6
C7
ENDCHAR
STARTCHAR E
ENCODING 69
SWIDTH 602 0
DWIDTH 8 0
BBX 7 10 1 0
BITMAP
FE
C0
C0
C0
FC
C0
C0
C0
C0
FE
ENDCHAR
STARTCHAR Eogonek
ENCODING 280
SWIDTH 602 0
DWIDTH 8 0
BBX 7 12 1 -2
BITMAP
FE
C0
C0
C0
FC
C0
C0
C0
C0
FE
04
06
ENDCHAR
STARTCHAR breve
ENCODING 728
SWIDTH 602 0
DWIDTH 8 0
BBX 4 2 2 8
BITMAP
90
60
ENDCHAR
STARTCHAR S
ENCODING 83
SWIDTH 602 0
DWIDTH 8 0
BBX 7 10 1 0
BITMAP
7C
C4
C0
E0
78
1C
0E
06
8E
F8
ENDCHAR
STARTCHAR dotaccent
ENCODING 729
SWIDTH 602 0
DWIDTH 8 0
BBX 2 1 3 9
BITMAP
C0
ENDCHAR
STARTCHAR eogonek
ENCODING 281
SWIDTH 602 0
DWIDTH 8 0
BBX 7 9 1 -2
BITMAP
3C
66
C6
FE
C0
62
3E
10
18
ENDCHAR
STARTCHAR Ccaron
ENCODING 268
SWIDTH 602 0
DWIDTH 8 0
BBX 8 13 0 0
BITMAP
1E
0C
00
1F
71
60
C0
C0
C0
C0
60
71
1F
ENDCHAR
STARTCHAR T
ENCODING 84
SWIDTH 602 0
DWIDTH 8 0
BBX 8 10 0 0
BITMAP
FF
18
18
18
18
18
18
18
18
18
ENDCHAR
STARTCHAR ccaron
ENCODING 269
SWIDTH 602 0
DWIDTH 8 0
BBX 7 10 1 0
BITMAP
3C
18
00
3E
60
C0
C0
C0
60
3E
ENDCHAR
STARTCHAR Ecaron
ENCODING 282
SWIDTH 602 0
DWIDTH 8 0
BBX 7 13 1 0
BITMAP
3C
18
00
FE
C0
C0
C0
FC
C0
C0
C0
C0
FE
ENDCHAR
STARTCHAR U
ENCODING 85
SWIDTH 602 0
DWIDTH 8 0
BBX 7 10 1 0
BITMAP
C6
C6
C6
C6
C6
C6
C6
C6
C6
7C
ENDCHAR
STARTCHAR ecaron
ENCODING 283
SWIDTH 602 0
DWIDTH 8 0
BBX 7 10 1 0
BITMAP
3C
18
00
3C
66
C6
FE
C0
62
3E
ENDCHAR
STARTCHAR V
ENCODING 86
SWIDTH 602 0
DWIDTH 8 0
BBX 8 10 0 0
BITMAP
C1
C2
62
62
64
34
34
38
38
18
ENDCHAR
STARTCHAR W
ENCODING 87
SWIDTH 602 0
DWIDTH 8 0
BBX 8 10 0 0
BITMAP
C1
C9
D9
DF
7F
7E
7E
66
66
66
ENDCHAR
STARTCHAR X
ENCODING 88
SWIDTH 602 0
DWIDTH 8 0
BBX 8 10 0 0
BITMAP
E3
62
74
3C
18
18
2C
2E
46
C7
ENDCHAR
STARTCHAR Y
ENCODING 89
SWIDTH 602 0
DWIDTH 8 0
BBX 8 10 0 0
BITMAP
C3
62
76
34
38
18
18
18
18
18
ENDCHAR
ENDFONT
